<svg xmlns="http://www.w3.org/2000/svg" viewBox="0 0 512 512" width="512" height="512">
  <defs>
    <linearGradient id="bg" x1="0" y1="0" x2="1" y2="1">
      <stop offset="0" stop-color="#7C5CFC"/>
      <stop offset="1" stop-color="#F472B6"/>
    </linearGradient>
    <linearGradient id="face" x1="0" y1="0" x2="0" y2="1">
      <stop offset="0" stop-color="#3B3561"/>
      <stop offset="1" stop-color="#241F3D"/>
    </linearGradient>
    <radialGradient id="eyeGlow" cx="0.5" cy="0.5" r="0.6">
      <stop offset="0" stop-color="#7AF8D0"/>
      <stop offset="1" stop-color="#22D3EE"/>
    </radialGradient>
    <linearGradient id="earIn" x1="0" y1="0" x2="0" y2="1">
      <stop offset="0" stop-color="#FBCFE8"/>
      <stop offset="1" stop-color="#F472B6"/>
    </linearGradient>
    <filter id="glow" x="-30%" y="-30%" width="160%" height="160%">
      <feGaussianBlur stdDeviation="6" result="b"/>
      <feMerge><feMergeNode in="b"/><feMergeNode in="SourceGraphic"/></feMerge>
    </filter>
  </defs>
  <rect x="20" y="20" width="472" height="472" rx="112" ry="112" fill="url(#bg)"/>
  <rect x="20" y="20" width="472" height="472" rx="112" ry="112" fill="#ffffff" opacity="0.08"/>
  <g transform="translate(256,256)">
    <path d="M -150 -70 L -118 -180 L -32 -100 Z" fill="url(#face)"/>
    <path d="M -132 -76 L -114 -148 L -58 -98 Z" fill="url(#earIn)"/>
    <path d="M 150 -70 L 118 -180 L 32 -100 Z" fill="url(#face)"/>
    <path d="M 132 -76 L 114 -148 L 58 -98 Z" fill="url(#earIn)"/>
    <ellipse cx="0" cy="22" rx="168" ry="148" fill="url(#face)"/>
    <ellipse cx="-105" cy="62" rx="34" ry="20" fill="#F472B6" opacity="0.35"/>
    <ellipse cx="105"  cy="62" rx="34" ry="20" fill="#F472B6" opacity="0.35"/>
    <g filter="url(#glow)">
      <ellipse cx="-65" cy="0" rx="40" ry="46" fill="#0E0E1A"/>
      <ellipse cx="-65" cy="0" rx="22" ry="34" fill="url(#eyeGlow)"/>
      <circle cx="-72" cy="-12" r="7" fill="#ffffff" opacity="0.9"/>
      <circle cx="-56" cy="8" r="3" fill="#ffffff" opacity="0.6"/>
    </g>
    <g filter="url(#glow)">
      <ellipse cx="65" cy="0" rx="40" ry="46" fill="#0E0E1A"/>
      <ellipse cx="65" cy="0" rx="22" ry="34" fill="url(#eyeGlow)"/>
      <circle cx="58" cy="-12" r="7" fill="#ffffff" opacity="0.9"/>
      <circle cx="74" cy="8" r="3" fill="#ffffff" opacity="0.6"/>
    </g>
    <path d="M -12 52 L 12 52 L 0 70 Z" fill="#FBCFE8"/>
    <path d="M -26 80 Q -10 96 0 80 Q 10 96 26 80" stroke="#FBCFE8" stroke-width="5" fill="none" stroke-linecap="round"/>
    <g stroke="#C7BFE0" stroke-width="3" stroke-linecap="round" opacity="0.85">
      <line x1="-165" y1="40"  x2="-95"  y2="50"/>
      <line x1="-165" y1="62"  x2="-95"  y2="62"/>
      <line x1="-165" y1="84"  x2="-95"  y2="74"/>
      <line x1="165"  y1="40"  x2="95"   y2="50"/>
      <line x1="165"  y1="62"  x2="95"   y2="62"/>
      <line x1="165"  y1="84"  x2="95"   y2="74"/>
    </g>
  </g>
</svg>
